<?xml version="1.0" encoding="utf-8" ?>	<!-- Generator: Assembly 2.2 - http://assemblyapp.co -->	<svg version="1.1" xmlns="http://www.w3.org/2000/svg" xmlns:xlink="http://www.w3.org/1999/xlink" width="375.00" height="500.00" viewBox="0 0 1536.0 2048.0">		<g id="document" transform="matrix(1,0,0,1,768.0,1024.0)">			<path d="M278.097,411.977 C190.978,411.977 181.997,344.617 98.4706,344.617 C60.749,344.617 26.6199,362.58 6.86102,392.218 C-13.796,362.58 -47.0269,344.617 -84.7485,344.617 C-170.071,344.617 -177.256,411.977 -264.375,411.977 C-363.17,411.977 -417.956,289.831 -442.205,218.879 L-442.205,488.318 C-442.205,672.436 -294.013,820.627 -109.896,820.627 L125.415,820.627 C308.634,820.627 455.927,672.436 455.927,488.318 L455.927,218.879 C431.678,289.831 377.79,411.977 278.097,411.977 Z M90.3874,608.668 L-78.4616,608.668 C-109.896,608.668 -136.84,581.724 -136.84,550.29 C-136.84,518.855 -109.896,491.911 -78.4616,491.911 L91.2855,491.911 C122.72,491.911 149.664,518.855 149.664,550.29 C150.562,581.724 123.618,608.668 90.3874,608.668 Z " fill="#ffebcd" fill-opacity="1.00" />			<path d="M522.248,-124.009 L392.097,-139.621 L429.542,-451.772 C432.588,-477.168 413.837,-499.811 389.5,-502.73 L-287.709,-583.967 C-313.104,-587.013 -335.748,-568.262 -338.667,-543.925 L-375.858,-233.891 L-508.126,-249.757 C-515.533,-250.646 -522.643,-245.058 -523.532,-237.651 L-524.801,-227.07 C-525.689,-219.663 -520.102,-212.553 -512.695,-211.664 L517.932,-88.032 C525.339,-87.1435 532.449,-92.7307 533.338,-100.138 L534.607,-110.719 C535.242,-116.01 529.655,-123.12 522.248,-124.009 Z " fill="#ffebcd" fill-opacity="1.00" />			<path d="M452.947,-7.46471 L378.434,-7.46471 C345.648,-55.1532 291.005,-86.9455 229.407,-86.9455 C141.978,-86.9455 69.4521,-24.3544 52.5625,58.1069 C38.6533,49.1653 22.7572,43.2043 5.86751,43.2043 C-10.0286,43.2043 -23.9378,47.1783 -37.8469,55.1264 C-55.7301,-26.3414 -127.263,-87.939 -214.692,-87.939 C-215.685,-87.939 -215.685,-87.939 -216.679,-87.939 C-217.672,-87.939 -218.666,-87.939 -218.666,-87.939 C-280.263,-87.939 -334.906,-56.1467 -367.692,-8.45822 L-442.205,-8.45822 L-442.205,21.3471 L-383.588,21.3471 C-393.523,43.2043 -398.491,67.0485 -398.491,92.8798 C-398.491,192.231 -318.017,273.699 -217.672,273.699 C-118.321,273.699 -36.8534,193.224 -36.8534,92.8798 L-35.8599,92.8798 C-35.8599,92.8798 -35.8599,92.8798 -35.8599,92.8798 L-32.8794,92.8798 C-32.8794,91.8863 -32.8794,90.8927 -32.8794,89.8992 C-22.9443,78.9706 -8.04162,73.0096 6.86102,73.0096 C23.7507,73.0096 38.6533,79.9641 49.5819,92.8798 L50.5754,91.8863 C50.5754,91.8863 50.5754,92.8798 50.5754,92.8798 C50.5754,192.231 131.05,273.699 231.394,273.699 C330.745,273.699 412.213,193.224 412.213,92.8798 C412.213,67.0485 407.245,43.2043 397.31,21.3471 L455.927,21.3471 L455.927,-7.46471 L452.947,-7.46471 Z M-218.666,244.887 C-302.12,244.887 -368.686,177.328 -368.686,94.8668 L-364.712,94.8668 C-364.712,12.4055 -298.146,-54.1597 -216.679,-55.1532 C-134.217,-54.1597 -68.6457,13.399 -68.6457,94.8668 C-68.6457,177.328 -135.211,244.887 -218.666,244.887 Z M229.407,244.887 C145.952,244.887 79.3872,177.328 79.3872,94.8668 C79.3872,11.412 146.946,-55.1532 229.407,-55.1532 C312.862,-55.1532 380.421,12.4055 380.421,94.8668 C379.427,177.328 312.862,244.887 229.407,244.887 Z " fill="#ffebcd" fill-opacity="1.00" />		</g>	</svg>